<svg width="70" height="70" viewBox="0 0 453 433" fill="none" xmlns="http://www.w3.org/2000/svg">
<path d="M20.5056 211.917C43.3258 135.073 66.8834 230.351 75.8097 287.596C77.1681 292.253 82.7955 301.742 94.4385 302.441C106.081 303.139 114.62 292.835 117.433 287.596L172.737 84.4261C173.902 80.8362 177.919 73.831 184.671 74.5296C191.424 75.2282 197.382 274.109 199.516 373.463C197.964 374.724 203.009 378.12 205.047 378.12C213.227 378.12 215.816 370.455 216.107 366.186L253.947 131.58C255.597 126.632 260.525 117.492 267.045 120.519C275.894 120.519 283.54 251.115 286.256 316.412C286.062 319.711 287.304 326.134 293.824 325.436C300.344 324.737 322.932 243.256 333.41 202.602C334.575 200.063 337.427 195.16 339.523 195.859C341.619 196.558 348.934 238.841 352.33 259.895C352.524 262.418 354.193 267.521 359.316 267.754C364.439 267.987 376.78 243.013 382.311 230.497C383.087 227.683 386.444 222.056 393.663 222.056C400.881 222.056 420.927 238.356 430.047 246.506" stroke="#5d4c80" stroke-opacity="0.8" stroke-width="40" stroke-linecap="round"/>
<path d="M23.2109 200.771C46.0311 123.928 69.5887 219.206 78.515 276.451C79.8733 281.108 85.5008 290.597 97.1437 291.295C108.787 291.994 117.325 281.69 120.139 276.451L175.443 73.2809C176.607 69.691 180.624 62.6858 187.377 63.3844C194.13 64.083 200.087 262.964 202.222 362.318C200.669 363.579 205.714 366.975 207.752 366.975C215.932 366.975 218.522 359.31 218.813 355.041L256.652 120.435C258.302 115.487 263.231 106.347 269.751 109.374C278.599 109.374 286.245 239.969 288.962 305.267C288.768 308.566 290.009 314.989 296.53 314.29C303.05 313.592 325.637 232.11 336.116 191.457C337.28 188.918 340.132 184.015 342.228 184.714C344.324 185.412 351.64 227.696 355.035 248.75C355.229 251.273 356.898 256.376 362.021 256.609C367.144 256.842 379.486 231.868 385.016 219.352C385.792 216.538 389.149 210.91 396.368 210.91C403.587 210.91 423.632 227.211 432.752 235.361" stroke="#5b3e96" stroke-width="40" stroke-linecap="round"/>
</svg>
